<mxfile host="app.diagrams.net" modified="2021-07-14T18:55:26.714Z" agent="5.0 (Windows NT 10.0; Win64; x64) AppleWebKit/537.36 (KHTML, like Gecko) Chrome/86.0.4240.277 Whale/2.9.118.38 Safari/537.36" etag="J2zduLn8h1Pla_b_-RcJ" version="14.6.3" type="github">
  <diagram id="bBaFMglCOI3WDih5mdD4" name="Page-1">
    <mxGraphModel dx="1422" dy="778" grid="1" gridSize="10" guides="1" tooltips="1" connect="1" arrows="1" fold="1" page="1" pageScale="1" pageWidth="827" pageHeight="1169" math="0" shadow="0">
      <root>
        <mxCell id="0" />
        <mxCell id="1" parent="0" />
        <mxCell id="LUHss0gjO41ABVOkLyDg-2" value="ORDER" style="verticalAlign=top;align=left;spacingTop=8;spacingLeft=2;spacingRight=12;shape=cube;size=10;direction=south;fontStyle=4;html=1;" parent="1" vertex="1">
          <mxGeometry x="40" y="510" width="1030" height="230" as="geometry" />
        </mxCell>
        <mxCell id="LUHss0gjO41ABVOkLyDg-3" value="MENU" style="verticalAlign=top;align=left;spacingTop=8;spacingLeft=2;spacingRight=12;shape=cube;size=10;direction=south;fontStyle=4;html=1;" parent="1" vertex="1">
          <mxGeometry x="40" y="140" width="660" height="290" as="geometry" />
        </mxCell>
        <mxCell id="LUHss0gjO41ABVOkLyDg-4" value="PRODUCT" style="verticalAlign=top;align=left;spacingTop=8;spacingLeft=2;spacingRight=12;shape=cube;size=10;direction=south;fontStyle=4;html=1;" parent="1" vertex="1">
          <mxGeometry x="780" y="140" width="290" height="290" as="geometry" />
        </mxCell>
        <mxCell id="LUHss0gjO41ABVOkLyDg-11" style="edgeStyle=orthogonalEdgeStyle;rounded=0;orthogonalLoop=1;jettySize=auto;html=1;" parent="1" source="LUHss0gjO41ABVOkLyDg-8" target="LUHss0gjO41ABVOkLyDg-9" edge="1">
          <mxGeometry relative="1" as="geometry" />
        </mxCell>
        <mxCell id="LUHss0gjO41ABVOkLyDg-60" style="edgeStyle=orthogonalEdgeStyle;rounded=0;orthogonalLoop=1;jettySize=auto;html=1;" parent="1" source="LUHss0gjO41ABVOkLyDg-8" target="LUHss0gjO41ABVOkLyDg-13" edge="1">
          <mxGeometry relative="1" as="geometry" />
        </mxCell>
        <mxCell id="LUHss0gjO41ABVOkLyDg-8" value="Menu" style="whiteSpace=wrap;html=1;align=center;" parent="1" vertex="1">
          <mxGeometry x="380" y="170" width="100" height="40" as="geometry" />
        </mxCell>
        <mxCell id="LUHss0gjO41ABVOkLyDg-63" style="edgeStyle=orthogonalEdgeStyle;rounded=0;orthogonalLoop=1;jettySize=auto;html=1;" parent="1" source="LUHss0gjO41ABVOkLyDg-9" target="LUHss0gjO41ABVOkLyDg-22" edge="1">
          <mxGeometry relative="1" as="geometry">
            <mxPoint x="600" y="360" as="targetPoint" />
          </mxGeometry>
        </mxCell>
        <mxCell id="LUHss0gjO41ABVOkLyDg-9" value="MenuProduct" style="whiteSpace=wrap;html=1;align=center;" parent="1" vertex="1">
          <mxGeometry x="570" y="235" width="100" height="40" as="geometry" />
        </mxCell>
        <mxCell id="LUHss0gjO41ABVOkLyDg-13" value="MenuGroup" style="whiteSpace=wrap;html=1;align=center;" parent="1" vertex="1">
          <mxGeometry x="220" y="240" width="100" height="40" as="geometry" />
        </mxCell>
        <mxCell id="LUHss0gjO41ABVOkLyDg-14" value="Product" style="whiteSpace=wrap;html=1;align=center;" parent="1" vertex="1">
          <mxGeometry x="950" y="335" width="100" height="40" as="geometry" />
        </mxCell>
        <mxCell id="LUHss0gjO41ABVOkLyDg-22" value="ProductId" style="text;html=1;strokeColor=none;fillColor=none;align=center;verticalAlign=middle;whiteSpace=wrap;rounded=0;" parent="1" vertex="1">
          <mxGeometry x="710" y="170" width="66" height="20" as="geometry" />
        </mxCell>
        <mxCell id="LUHss0gjO41ABVOkLyDg-25" value="«interface»&lt;br&gt;&lt;b&gt;MenuGroupRepository&lt;/b&gt;" style="html=1;" parent="1" vertex="1">
          <mxGeometry x="60" y="240" width="140" height="30" as="geometry" />
        </mxCell>
        <mxCell id="LUHss0gjO41ABVOkLyDg-26" value="«interface»&lt;br&gt;&lt;b&gt;MenuRepository&lt;/b&gt;" style="html=1;" parent="1" vertex="1">
          <mxGeometry x="60" y="340" width="140" height="30" as="geometry" />
        </mxCell>
        <mxCell id="LUHss0gjO41ABVOkLyDg-27" value="MenuGroupService" style="html=1;" parent="1" vertex="1">
          <mxGeometry x="60" y="190" width="140" height="30" as="geometry" />
        </mxCell>
        <mxCell id="LUHss0gjO41ABVOkLyDg-28" value="MenuService" style="html=1;" parent="1" vertex="1">
          <mxGeometry x="60" y="290" width="140" height="30" as="geometry" />
        </mxCell>
        <mxCell id="LUHss0gjO41ABVOkLyDg-29" value="«interface»&lt;br&gt;&lt;b&gt;ProductRepository&lt;/b&gt;" style="html=1;" parent="1" vertex="1">
          <mxGeometry x="910" y="240" width="140" height="30" as="geometry" />
        </mxCell>
        <mxCell id="LUHss0gjO41ABVOkLyDg-30" value="ProductService" style="html=1;" parent="1" vertex="1">
          <mxGeometry x="910" y="190" width="140" height="30" as="geometry" />
        </mxCell>
        <mxCell id="LUHss0gjO41ABVOkLyDg-46" style="edgeStyle=orthogonalEdgeStyle;rounded=0;orthogonalLoop=1;jettySize=auto;html=1;" parent="1" source="LUHss0gjO41ABVOkLyDg-31" target="LUHss0gjO41ABVOkLyDg-37" edge="1">
          <mxGeometry relative="1" as="geometry" />
        </mxCell>
        <mxCell id="LUHss0gjO41ABVOkLyDg-53" style="edgeStyle=orthogonalEdgeStyle;rounded=0;orthogonalLoop=1;jettySize=auto;html=1;" parent="1" source="LUHss0gjO41ABVOkLyDg-31" target="LUHss0gjO41ABVOkLyDg-39" edge="1">
          <mxGeometry relative="1" as="geometry" />
        </mxCell>
        <mxCell id="LUHss0gjO41ABVOkLyDg-31" value="Order" style="whiteSpace=wrap;html=1;align=center;" parent="1" vertex="1">
          <mxGeometry x="75" y="540" width="100" height="40" as="geometry" />
        </mxCell>
        <mxCell id="LUHss0gjO41ABVOkLyDg-32" value="OrderService" style="html=1;" parent="1" vertex="1">
          <mxGeometry x="736" y="690" width="140" height="30" as="geometry" />
        </mxCell>
        <mxCell id="LUHss0gjO41ABVOkLyDg-33" value="TableService" style="html=1;" parent="1" vertex="1">
          <mxGeometry x="896" y="690" width="140" height="30" as="geometry" />
        </mxCell>
        <mxCell id="LUHss0gjO41ABVOkLyDg-34" value="TableGroupService" style="html=1;" parent="1" vertex="1">
          <mxGeometry x="570" y="690" width="140" height="30" as="geometry" />
        </mxCell>
        <mxCell id="LUHss0gjO41ABVOkLyDg-44" style="edgeStyle=orthogonalEdgeStyle;rounded=0;orthogonalLoop=1;jettySize=auto;html=1;" parent="1" source="LUHss0gjO41ABVOkLyDg-37" target="LUHss0gjO41ABVOkLyDg-38" edge="1">
          <mxGeometry relative="1" as="geometry" />
        </mxCell>
        <mxCell id="LUHss0gjO41ABVOkLyDg-55" style="edgeStyle=orthogonalEdgeStyle;rounded=0;orthogonalLoop=1;jettySize=auto;html=1;" parent="1" source="LUHss0gjO41ABVOkLyDg-37" target="LUHss0gjO41ABVOkLyDg-56" edge="1">
          <mxGeometry relative="1" as="geometry">
            <mxPoint x="455" y="450" as="targetPoint" />
          </mxGeometry>
        </mxCell>
        <mxCell id="LUHss0gjO41ABVOkLyDg-37" value="OrderLineItem" style="whiteSpace=wrap;html=1;align=center;" parent="1" vertex="1">
          <mxGeometry x="380" y="540" width="100" height="40" as="geometry" />
        </mxCell>
        <mxCell id="LUHss0gjO41ABVOkLyDg-61" style="edgeStyle=orthogonalEdgeStyle;rounded=0;orthogonalLoop=1;jettySize=auto;html=1;" parent="1" source="LUHss0gjO41ABVOkLyDg-38" target="LUHss0gjO41ABVOkLyDg-62" edge="1">
          <mxGeometry relative="1" as="geometry">
            <mxPoint x="740" y="460" as="targetPoint" />
          </mxGeometry>
        </mxCell>
        <mxCell id="LUHss0gjO41ABVOkLyDg-38" value="OrderLineItem&lt;br&gt;Detail" style="whiteSpace=wrap;html=1;align=center;" parent="1" vertex="1">
          <mxGeometry x="690" y="540" width="100" height="40" as="geometry" />
        </mxCell>
        <mxCell id="LUHss0gjO41ABVOkLyDg-39" value="OrderTable" style="whiteSpace=wrap;html=1;align=center;" parent="1" vertex="1">
          <mxGeometry x="75" y="640" width="100" height="40" as="geometry" />
        </mxCell>
        <mxCell id="LUHss0gjO41ABVOkLyDg-40" value="TableGroup" style="whiteSpace=wrap;html=1;align=center;" parent="1" vertex="1">
          <mxGeometry x="250" y="640" width="100" height="40" as="geometry" />
        </mxCell>
        <mxCell id="LUHss0gjO41ABVOkLyDg-48" value="«interface»&lt;br&gt;&lt;b&gt;TableGroupRepository&lt;/b&gt;" style="html=1;" parent="1" vertex="1">
          <mxGeometry x="570" y="640" width="140" height="30" as="geometry" />
        </mxCell>
        <mxCell id="LUHss0gjO41ABVOkLyDg-51" value="«interface»&lt;br&gt;&lt;b&gt;OrderTableRepository&lt;/b&gt;" style="html=1;" parent="1" vertex="1">
          <mxGeometry x="736" y="640" width="140" height="30" as="geometry" />
        </mxCell>
        <mxCell id="LUHss0gjO41ABVOkLyDg-52" value="«interface»&lt;br&gt;&lt;b&gt;OrderRepository&lt;/b&gt;" style="html=1;" parent="1" vertex="1">
          <mxGeometry x="896" y="640" width="140" height="30" as="geometry" />
        </mxCell>
        <mxCell id="LUHss0gjO41ABVOkLyDg-54" value="OrderValidator" style="html=1;" parent="1" vertex="1">
          <mxGeometry x="400" y="690" width="140" height="30" as="geometry" />
        </mxCell>
        <mxCell id="LUHss0gjO41ABVOkLyDg-56" value="MenuId" style="text;html=1;strokeColor=none;fillColor=none;align=center;verticalAlign=middle;whiteSpace=wrap;rounded=0;" parent="1" vertex="1">
          <mxGeometry x="347" y="440" width="66" height="20" as="geometry" />
        </mxCell>
        <mxCell id="LUHss0gjO41ABVOkLyDg-62" value="ProductId" style="text;html=1;strokeColor=none;fillColor=none;align=center;verticalAlign=middle;whiteSpace=wrap;rounded=0;" parent="1" vertex="1">
          <mxGeometry x="840" y="440" width="66" height="20" as="geometry" />
        </mxCell>
        <mxCell id="LUHss0gjO41ABVOkLyDg-64" value="MenuOption" style="whiteSpace=wrap;html=1;align=center;" parent="1" vertex="1">
          <mxGeometry x="380" y="335" width="100" height="40" as="geometry" />
        </mxCell>
        <mxCell id="LUHss0gjO41ABVOkLyDg-65" value="MenuProductOption" style="whiteSpace=wrap;html=1;align=center;" parent="1" vertex="1">
          <mxGeometry x="560" y="335" width="120" height="40" as="geometry" />
        </mxCell>
        <mxCell id="LUHss0gjO41ABVOkLyDg-71" value="Use" style="endArrow=open;endSize=12;dashed=1;html=1;" parent="1" source="LUHss0gjO41ABVOkLyDg-38" target="LUHss0gjO41ABVOkLyDg-65" edge="1">
          <mxGeometry width="160" relative="1" as="geometry">
            <mxPoint x="450" y="390" as="sourcePoint" />
            <mxPoint x="610" y="390" as="targetPoint" />
          </mxGeometry>
        </mxCell>
        <mxCell id="LUHss0gjO41ABVOkLyDg-73" value="Use" style="endArrow=open;endSize=12;dashed=1;html=1;" parent="1" source="LUHss0gjO41ABVOkLyDg-37" target="LUHss0gjO41ABVOkLyDg-64" edge="1">
          <mxGeometry width="160" relative="1" as="geometry">
            <mxPoint x="450" y="540" as="sourcePoint" />
            <mxPoint x="450" y="375" as="targetPoint" />
          </mxGeometry>
        </mxCell>
        <mxCell id="LUHss0gjO41ABVOkLyDg-75" style="edgeStyle=orthogonalEdgeStyle;rounded=0;orthogonalLoop=1;jettySize=auto;html=1;exitX=0.5;exitY=1;exitDx=0;exitDy=0;" parent="1" source="LUHss0gjO41ABVOkLyDg-62" target="LUHss0gjO41ABVOkLyDg-62" edge="1">
          <mxGeometry relative="1" as="geometry" />
        </mxCell>
        <mxCell id="LUHss0gjO41ABVOkLyDg-76" value="Use" style="endArrow=open;endSize=12;dashed=1;html=1;" parent="1" source="LUHss0gjO41ABVOkLyDg-14" target="XUq1lDrAl67lcuPC3TNO-6" edge="1">
          <mxGeometry width="160" relative="1" as="geometry">
            <mxPoint x="450" y="390" as="sourcePoint" />
            <mxPoint x="610" y="390" as="targetPoint" />
          </mxGeometry>
        </mxCell>
        <mxCell id="XUq1lDrAl67lcuPC3TNO-2" value="MenuValidator" style="html=1;" vertex="1" parent="1">
          <mxGeometry x="60" y="390" width="140" height="30" as="geometry" />
        </mxCell>
        <mxCell id="XUq1lDrAl67lcuPC3TNO-3" value="TableGroupValidator" style="html=1;" vertex="1" parent="1">
          <mxGeometry x="230" y="690" width="140" height="30" as="geometry" />
        </mxCell>
        <mxCell id="XUq1lDrAl67lcuPC3TNO-4" value="Use" style="endArrow=open;endSize=12;dashed=1;html=1;" edge="1" parent="1" source="LUHss0gjO41ABVOkLyDg-8" target="LUHss0gjO41ABVOkLyDg-64">
          <mxGeometry width="160" relative="1" as="geometry">
            <mxPoint x="640" y="400" as="sourcePoint" />
            <mxPoint x="800" y="400" as="targetPoint" />
          </mxGeometry>
        </mxCell>
        <mxCell id="XUq1lDrAl67lcuPC3TNO-6" value="ProductOption" style="whiteSpace=wrap;html=1;align=center;" vertex="1" parent="1">
          <mxGeometry x="790" y="335" width="100" height="40" as="geometry" />
        </mxCell>
        <mxCell id="XUq1lDrAl67lcuPC3TNO-8" value="Use" style="endArrow=open;endSize=12;dashed=1;html=1;" edge="1" parent="1" source="LUHss0gjO41ABVOkLyDg-38" target="XUq1lDrAl67lcuPC3TNO-6">
          <mxGeometry width="160" relative="1" as="geometry">
            <mxPoint x="640" y="400" as="sourcePoint" />
            <mxPoint x="800" y="400" as="targetPoint" />
          </mxGeometry>
        </mxCell>
        <mxCell id="XUq1lDrAl67lcuPC3TNO-10" value="Use" style="endArrow=open;endSize=12;dashed=1;html=1;" edge="1" parent="1" source="LUHss0gjO41ABVOkLyDg-9" target="LUHss0gjO41ABVOkLyDg-65">
          <mxGeometry width="160" relative="1" as="geometry">
            <mxPoint x="640" y="400" as="sourcePoint" />
            <mxPoint x="800" y="400" as="targetPoint" />
          </mxGeometry>
        </mxCell>
      </root>
    </mxGraphModel>
  </diagram>
</mxfile>
